<svg data-v-423bf9ae="" xmlns="http://www.w3.org/2000/svg" viewBox="0 0 809 244" class="iconLeftSlogan"><!----><!----><!----><g data-v-423bf9ae="" id="53cd1f79-1bc4-496b-af75-25b1a25b605d" fill="black" transform="matrix(4.996271531607167,0,0,4.996271531607167,446.3065180295479,-14.639075205890371)"><path d="M5.73 3.57L4.29 4.49L4.29 4.49Q4.47 4.81 4.50 5.35L4.50 5.35L4.51 6.93L2.64 6.92L2.11 7.55L2.15 4.32L2.15 4.32Q2.05 3.78 1.69 3.53L1.69 3.53L0.25 4.45L0.25 4.45Q0.43 4.77 0.46 5.31L0.46 5.31L0.46 5.31Q0.39 11.44 0.51 11.91L0.51 11.91L0.51 11.91Q0.63 12.39 1.21 12.67L1.21 12.67L2.82 11.53L2.71 11.24L2.71 11.24Q2.35 11.34 2.21 10.96L2.21 10.96L2.21 10.96Q2.06 10.58 2.11 7.97L2.11 7.97L4.46 7.96L4.46 7.96Q4.43 11.47 4.55 11.95L4.55 11.95L4.55 11.95Q4.67 12.42 5.25 12.71L5.25 12.71L6.86 11.57L6.75 11.28L6.75 11.28Q6.39 11.38 6.25 11.00L6.25 11.00L6.25 11.00Q6.10 10.62 6.19 4.36L6.19 4.36L6.19 4.36Q6.09 3.82 5.73 3.57L5.73 3.57ZM8.75 6.42L7.08 7.64L7.23 7.87L7.23 7.87Q7.74 7.56 7.68 8.50L7.68 8.50L7.68 8.50Q7.62 11.46 7.70 11.91L7.70 11.91L7.70 11.91Q7.79 12.37 8.37 12.71L8.37 12.71L9.82 11.46L9.82 11.29L9.82 11.29Q9.36 11.40 9.24 10.78L9.24 10.78L9.24 10.78Q9.11 10.17 9.19 8.27L9.19 8.27L9.19 8.27Q10.06 7.48 10.73 8.43L10.73 8.43L11.96 7.29L11.96 7.29Q11.18 6.25 10.55 6.49L10.55 6.49L10.55 6.49Q9.93 6.72 9.21 7.62L9.21 7.62L9.21 7.62Q9.28 6.77 8.75 6.42L8.75 6.42ZM13.12 3.68L11.75 4.86L11.75 4.86Q12.39 5.30 12.71 5.91L12.71 5.91L12.71 5.91Q13.86 5.15 14.00 4.96L14.00 4.96L14.00 4.96Q14.14 4.76 13.93 4.31L13.93 4.31L13.93 4.31Q13.72 3.86 13.12 3.68L13.12 3.68ZM11.96 7.76L11.96 7.76Q12.54 7.43 12.35 9.23L12.35 9.23L12.35 9.23Q12.31 11.37 12.36 11.88L12.36 11.88L12.36 11.88Q12.41 12.39 12.97 12.72L12.97 12.72L14.33 11.45L14.33 11.27L14.33 11.27Q13.96 11.29 13.87 10.76L13.87 10.76L13.87 10.76Q13.79 10.23 13.83 8.94L13.83 8.94L13.83 8.94Q13.86 7.65 13.85 7.25L13.85 7.25L13.85 7.25Q13.83 6.85 13.47 6.45L13.47 6.45L11.85 7.57L11.96 7.76ZM17.58 6.52L17.58 6.52L17.58 6.52Q16.86 6.63 16.41 6.92L16.41 6.92L16.41 6.92Q15.96 7.21 15.64 7.52L15.64 7.52L15.64 7.52Q15.33 7.84 15.16 8.41L15.16 8.41L15.16 8.41Q15.00 8.98 15.45 9.39L15.45 9.39L15.45 9.39Q15.91 9.80 16.96 10.02L16.96 10.02L16.96 10.02Q18.01 10.24 18.36 10.55L18.36 10.55L18.36 10.55Q18.70 10.87 18.73 11.14L18.73 11.14L18.73 11.14Q18.76 11.42 18.52 11.52L18.52 11.52L18.52 11.52Q18.27 11.61 17.76 11.54L17.76 11.54L17.76 11.54Q17.25 11.46 16.79 11.22L16.79 11.22L16.79 11.22Q16.32 10.99 15.99 10.65L15.99 10.65L15.99 10.65Q15.65 10.32 15.93 10.02L15.93 10.02L15.78 9.93L14.72 10.84L14.72 10.84Q14.59 11.20 14.99 11.67L14.99 11.67L14.99 11.67Q15.39 12.14 16.01 12.40L16.01 12.40L16.01 12.40Q16.63 12.66 17.27 12.70L17.27 12.70L17.27 12.70Q17.91 12.74 18.55 12.32L18.55 12.32L18.55 12.32Q19.20 11.90 19.50 11.35L19.50 11.35L19.50 11.35Q19.80 10.81 19.74 10.26L19.74 10.26L19.74 10.26Q19.67 9.71 19.31 9.30L19.31 9.30L19.31 9.30Q18.96 8.88 17.78 8.55L17.78 8.55L17.78 8.55Q16.60 8.22 16.41 7.84L16.41 7.84L16.41 7.84Q16.22 7.45 16.70 7.38L16.70 7.38L16.70 7.38Q17.19 7.31 17.85 7.63L17.85 7.63L17.85 7.63Q18.51 7.96 18.29 8.25L18.29 8.25L18.38 8.35L19.39 7.38L19.39 7.38Q19.29 6.92 18.79 6.67L18.79 6.67L18.79 6.67Q18.29 6.41 17.58 6.52ZM21.39 3.05L20.21 3.99L20.21 3.99Q20.38 4.34 20.41 4.93L20.41 4.93L20.41 4.93Q20.38 11.40 20.50 11.88L20.50 11.88L20.50 11.88Q20.62 12.37 20.99 12.81L20.99 12.81L22.44 11.46L22.44 11.29L22.44 11.29Q21.98 11.40 21.86 10.78L21.86 10.78L21.86 10.78Q21.74 10.17 21.81 8.27L21.81 8.27L21.81 8.27Q22.82 7.50 23.42 7.73L23.42 7.73L23.42 7.73Q24.03 7.96 24.02 9.39L24.02 9.39L24.02 9.39Q23.99 11.44 24.04 11.93L24.04 11.93L24.04 11.93Q24.08 12.42 24.62 12.78L24.62 12.78L26.00 11.53L26.01 11.35L26.01 11.35Q25.66 11.46 25.54 10.83L25.54 10.83L25.54 10.83Q25.42 10.20 25.49 8.76L25.49 8.76L25.49 8.76Q25.54 7.88 25.35 7.35L25.35 7.35L25.35 7.35Q25.16 6.82 24.53 6.58L24.53 6.58L24.53 6.58Q23.91 6.33 23.38 6.59L23.38 6.59L23.38 6.59Q22.85 6.85 22.50 7.14L22.50 7.14L22.50 7.14Q22.16 7.42 21.84 7.62L21.84 7.62L21.81 3.91L21.81 3.91Q21.72 3.32 21.39 3.05L21.39 3.05ZM27.60 3.68L26.24 4.86L26.24 4.86Q26.87 5.30 27.20 5.91L27.20 5.91L27.20 5.91Q28.35 5.15 28.49 4.96L28.49 4.96L28.49 4.96Q28.63 4.76 28.42 4.31L28.42 4.31L28.42 4.31Q28.21 3.86 27.60 3.68L27.60 3.68ZM26.45 7.76L26.45 7.76Q27.03 7.43 26.83 9.23L26.83 9.23L26.83 9.23Q26.80 11.37 26.84 11.88L26.84 11.88L26.84 11.88Q26.89 12.39 27.45 12.72L27.45 12.72L28.81 11.45L28.82 11.27L28.82 11.27Q28.44 11.29 28.36 10.76L28.36 10.76L28.36 10.76Q28.27 10.23 28.31 8.94L28.31 8.94L28.31 8.94Q28.35 7.65 28.33 7.25L28.33 7.25L28.33 7.25Q28.31 6.85 27.96 6.45L27.96 6.45L26.34 7.57L26.45 7.76ZM30.72 3.52L29.18 4.78L29.29 5.01L29.29 5.01Q29.82 4.85 30.00 5.69L30.00 5.69L29.98 10.02L29.98 10.02Q29.99 11.20 30.54 11.89L30.54 11.89L30.54 11.89Q31.10 12.58 32.06 12.69L32.06 12.69L32.06 12.69Q33.03 12.80 33.55 12.31L33.55 12.31L33.55 12.31Q34.08 11.83 34.56 11.17L34.56 11.17L34.56 11.17Q35.04 10.51 35.45 9.65L35.45 9.65L35.45 9.65Q35.86 8.79 35.84 7.26L35.84 7.26L35.84 7.26Q35.81 5.73 34.54 4.27L34.54 4.27L34.54 4.27Q33.99 3.64 33.00 3.50L33.00 3.50L31.62 5.00L31.62 5.00Q31.51 4.01 30.72 3.52L30.72 3.52ZM32.43 5.07L32.43 5.07L32.43 5.07Q32.83 5.02 33.47 5.67L33.47 5.67L33.47 5.67Q34.10 6.32 34.36 8.01L34.36 8.01L34.36 8.01Q34.61 9.69 33.89 11.30L33.89 11.30L33.89 11.30Q33.19 11.78 32.44 11.38L32.44 11.38L32.44 11.38Q31.69 10.98 31.59 9.71L31.59 9.71L31.61 5.63L31.61 5.63Q32.03 5.11 32.43 5.07ZM37.53 3.05L36.35 3.99L36.35 3.99Q36.52 4.34 36.55 4.93L36.55 4.93L36.55 4.93Q36.52 11.40 36.64 11.88L36.64 11.88L36.64 11.88Q36.76 12.37 37.13 12.81L37.13 12.81L38.58 11.46L38.58 11.29L38.58 11.29Q38.12 11.40 38.00 10.78L38.00 10.78L38.00 10.78Q37.88 10.17 37.95 8.27L37.95 8.27L37.95 8.27Q38.96 7.50 39.56 7.73L39.56 7.73L39.56 7.73Q40.17 7.96 40.16 9.39L40.16 9.39L40.16 9.39Q40.13 11.44 40.17 11.93L40.17 11.93L40.17 11.93Q40.22 12.42 40.76 12.78L40.76 12.78L42.14 11.53L42.15 11.35L42.15 11.35Q41.79 11.46 41.68 10.83L41.68 10.83L41.68 10.83Q41.56 10.20 41.63 8.76L41.63 8.76L41.63 8.76Q41.68 7.88 41.49 7.35L41.49 7.35L41.49 7.35Q41.30 6.82 40.67 6.58L40.67 6.58L40.67 6.58Q40.05 6.33 39.52 6.59L39.52 6.59L39.52 6.59Q38.99 6.85 38.64 7.14L38.64 7.14L38.64 7.14Q38.29 7.42 37.98 7.62L37.98 7.62L37.95 3.91L37.95 3.91Q37.86 3.32 37.53 3.05L37.53 3.05ZM44.89 6.49L44.89 6.49Q43.74 7.24 43.27 7.80L43.27 7.80L43.27 7.80Q42.79 8.35 42.60 8.92L42.60 8.92L42.60 8.92Q42.41 9.48 42.54 10.33L42.54 10.33L42.54 10.33Q42.66 11.18 43.53 11.96L43.53 11.96L43.53 11.96Q44.40 12.75 44.92 12.75L44.92 12.75L44.92 12.75Q45.44 12.76 46.55 11.74L46.55 11.74L46.55 11.74Q46.98 11.35 47.31 10.91L47.31 10.91L47.31 10.91Q47.63 10.47 47.79 9.67L47.79 9.67L47.79 9.67Q47.94 8.87 47.52 7.90L47.52 7.90L47.52 7.90Q46.49 6.30 44.89 6.49L44.89 6.49ZM44.67 7.70L44.67 7.70L44.67 7.70Q45.53 7.83 46.04 8.81L46.04 8.81L46.04 8.81Q46.55 9.79 46.38 10.78L46.38 10.78L46.38 10.78Q46.21 11.76 45.33 11.29L45.33 11.29L45.33 11.29Q44.45 10.81 44.00 10.00L44.00 10.00L44.00 10.00Q43.56 9.19 43.68 8.37L43.68 8.37L43.68 8.37Q43.80 7.56 44.67 7.70ZM49.83 6.42L48.16 7.64L48.32 7.87L48.32 7.87Q48.82 7.56 48.77 8.50L48.77 8.50L48.77 8.50Q48.70 11.46 48.79 11.91L48.79 11.91L48.79 11.91Q48.88 12.37 49.45 12.71L49.45 12.71L50.90 11.46L50.90 11.29L50.90 11.29Q50.44 11.40 50.32 10.78L50.32 10.78L50.32 10.78Q50.20 10.17 50.27 8.27L50.27 8.27L50.27 8.27Q51.15 7.48 51.75 7.71L51.75 7.71L51.75 7.71Q52.36 7.94 52.35 9.37L52.35 9.37L52.35 9.37Q52.32 11.42 52.36 11.91L52.36 11.91L52.36 11.91Q52.41 12.40 52.95 12.76L52.95 12.76L54.37 11.49L54.34 11.33L54.34 11.33Q53.98 11.44 53.87 10.81L53.87 10.81L53.87 10.81Q53.75 10.18 53.82 8.74L53.82 8.74L53.82 8.74Q53.87 7.86 53.68 7.33L53.68 7.33L53.68 7.33Q53.48 6.80 52.86 6.56L52.86 6.56L52.86 6.56Q52.24 6.31 51.71 6.57L51.71 6.57L51.71 6.57Q51.17 6.83 50.83 7.12L50.83 7.12L50.83 7.12Q50.48 7.40 50.30 7.62L50.30 7.62L50.30 7.62Q50.36 6.77 49.83 6.42L49.83 6.42ZM59.58 2.93L59.58 2.93L58.24 3.85L58.24 3.85Q58.56 4.42 58.52 6.77L58.52 6.77L58.52 6.77Q58.02 6.51 57.59 6.55L57.59 6.55L57.59 6.55Q57.16 6.58 56.63 6.94L56.63 6.94L56.63 6.94Q56.10 7.30 55.48 7.91L55.48 7.91L55.48 7.91Q54.86 8.51 54.65 9.61L54.65 9.61L54.65 9.61Q54.43 10.71 55.07 11.71L55.07 11.71L55.07 11.71Q55.70 12.71 56.44 12.75L56.44 12.75L56.44 12.75Q57.18 12.78 58.63 11.28L58.63 11.28L58.63 11.28Q58.63 12.25 59.48 12.77L59.48 12.77L60.67 11.76L60.67 11.76Q59.95 11.37 60.07 7.21L60.07 7.21L60.07 7.21Q60.18 3.04 59.58 2.93ZM56.16 7.93L56.16 7.93Q57.23 7.84 57.65 8.83L57.65 8.83L58.55 8.05L58.55 8.45L58.58 8.62L58.58 10.73L58.50 10.76L58.50 10.76Q58.30 11.18 57.59 11.23L57.59 11.23L57.59 11.23Q56.88 11.29 56.31 10.33L56.31 10.33L56.31 10.33Q55.73 9.38 56.16 7.93L56.16 7.93ZM66.15 3.96L64.74 5.48L64.74 5.48Q65.67 5.93 65.36 6.71L65.36 6.71L65.36 6.71Q64.31 6.41 63.82 6.62L63.82 6.62L63.82 6.62Q63.33 6.83 62.72 7.21L62.72 7.21L62.72 7.21Q62.11 7.59 61.63 8.18L61.63 8.18L61.63 8.18Q61.15 8.78 61.08 9.60L61.08 9.60L61.08 9.60Q61.22 11.27 63.23 11.18L63.23 11.18L63.23 11.18Q63.16 11.78 63.64 11.79L63.64 11.79L63.64 11.79Q64.12 11.80 65.16 12.02L65.16 12.02L65.16 12.02Q66.20 12.24 65.98 12.88L65.98 12.88L65.98 12.88Q65.77 13.52 64.64 13.52L64.64 13.52L64.64 13.52Q63.52 13.51 62.71 12.99L62.71 12.99L62.71 12.99Q61.90 12.46 62.12 12.10L62.12 12.10L61.97 11.86L60.55 13.24L60.55 13.24Q61.32 14.63 62.88 14.86L62.88 14.86L62.88 14.86Q64.44 15.09 65.05 14.65L65.05 14.65L65.05 14.65Q65.67 14.21 65.93 13.77L65.93 13.77L65.93 13.77Q66.19 13.32 66.43 13.06L66.43 13.06L66.43 13.06Q66.67 12.80 67.22 11.87L67.22 11.87L67.22 11.87Q67.29 10.71 65.95 10.56L65.95 10.56L65.95 10.56Q64.61 10.41 64.75 10.24L64.75 10.24L64.75 10.24Q64.89 10.06 65.70 9.24L65.70 9.24L65.70 9.24Q66.51 8.42 65.66 7.02L65.66 7.02L65.66 7.02Q67.07 5.89 66.91 5.00L66.91 5.00L66.91 5.00Q66.75 4.12 66.15 3.96L66.15 3.96ZM62.89 7.79L62.89 7.79Q64.13 7.73 64.59 8.73L64.59 8.73L64.59 8.73Q65.04 9.97 63.91 9.99L63.91 9.99L63.91 9.99Q62.87 9.81 62.50 8.85L62.50 8.85L62.50 8.85Q62.23 7.98 62.89 7.79L62.89 7.79ZM70.79 6.60L70.79 6.60L70.79 6.60Q69.72 6.43 68.79 7.26L68.79 7.26L68.79 7.26Q67.86 8.09 67.60 9.20L67.60 9.20L67.60 9.20Q67.34 10.31 67.76 11.26L67.76 11.26L67.76 11.26Q68.18 12.22 69.32 12.62L69.32 12.62L69.32 12.62Q70.25 12.93 71.26 12.18L71.26 12.18L71.26 12.18Q72.26 11.43 72.58 10.77L72.58 10.77L72.37 10.61L72.37 10.61Q70.99 11.56 70.17 11.24L70.17 11.24L70.17 11.24Q69.36 10.92 69.21 10.51L69.21 10.51L70.70 9.54L70.70 9.54Q72.14 8.65 72.00 7.70L72.00 7.70L72.00 7.70Q71.85 6.76 70.79 6.60ZM68.70 8.64L68.70 8.64L68.70 8.64Q68.68 8.14 69.05 7.78L69.05 7.78L69.05 7.78Q69.43 7.41 70.03 7.78L70.03 7.78L70.03 7.78Q70.64 8.15 70.55 8.76L70.55 8.76L70.55 8.76Q70.45 9.37 69.01 10.14L69.01 10.14L69.01 10.14Q68.85 9.80 68.78 9.47L68.78 9.47L68.78 9.47Q68.71 9.14 68.70 8.64Z"></path></g><!----><g data-v-423bf9ae="" id="9077619b-8bc3-4f19-9dcd-51f62b62c898" transform="matrix(1.6444444444444444,0,0,1.6444444444444444,-32.66666666666666,-124.66666666666666)" stroke="none" fill="black"><path d="M230.9 196c2.8 0 5.1-2.3 5.1-5.1V93.8c0-2.8-2.3-4.8-5.1-4.8H69.1c-2.8 0-5.1 2-5.1 4.8V191c0 2.8 2.3 5.1 5.1 5.1h161.8zM74 118.8L94.1 99h5.9l-26 25.6v-5.8zm0 20L114.1 99h5.9l-46 45.6v-5.8zm0 20L134.1 99h5.9l-66 65.6v-5.8zM159.9 99L74 184.6v-5.9L154.1 99h5.8zm20 0l-87.1 87h-5.9L174 99h5.9zm20 0l-87.1 87h-5.9L194 99h5.9zm20 0l-87.1 87h-5.9L214 99h5.9zm-13 87l19.1-19.1v5.9L212.8 186h-5.9zm-20 0l39.1-39.1v5.9L192.8 186h-5.9zm-20 0l59.1-59.1v5.9L172.8 186h-5.9zm59.1-73.2L152.8 186h-5.9l79.1-79.1v5.9zM79.9 99l-5.9 5.6V99h5.9zM275 199h-26V81.3c0-2.8-2.1-5.3-4.9-5.3H55.9c-2.8 0-4.9 2.6-4.9 5.3V199H25c-2.8 0-5 2.2-5 5v15c0 2.8 2.2 5 5 5h250c2.8 0 5-2.2 5-5v-15c0-2.8-2.2-5-5-5zM61 86h178v112H61V86zm209 128H30v-5h95.7l6.8 2.7c.6.2 1.2.3 1.8.3h30c.6 0 1.1-.1 1.7-.3l6.8-2.4.6-.3H270v5z"></path></g><!----><g data-v-423bf9ae="" id="f3ffd6cd-e985-4ceb-bc46-052c8ab22524" fill="black" transform="matrix(1.1945963794297267,0,0,1.1945963794297267,447.10160578010414,56.72680496385513)"><path d="M0.77 3.64L0.38 3.64L0.40 3.08L3.50 3.08L3.50 3.08Q5.24 3.08 6.02 3.75L6.02 3.75L6.02 3.75Q6.79 4.42 6.79 5.37L6.79 5.37L6.79 5.37Q6.79 6.08 6.25 6.60L6.25 6.60L6.25 6.60Q5.69 7.14 5.00 7.35L5.00 7.35L5.00 7.35Q6.08 7.57 6.61 8.34L6.61 8.34L6.61 8.34Q7.13 9.08 7.12 10.01L7.12 10.01L7.12 10.01Q7.12 11.01 6.49 11.59L6.49 11.59L6.49 11.59Q5.89 12.13 4.94 12.28L4.94 12.28L4.94 12.28Q4.02 12.41 2.47 12.41L2.47 12.41L0.49 12.41L0.49 11.87L0.91 11.87L0.91 11.87Q1.27 11.87 1.38 11.80L1.38 11.80L1.38 11.80Q1.50 11.73 1.50 11.46L1.50 11.46L1.50 4.14L1.50 4.14Q1.50 3.81 1.35 3.72L1.35 3.72L1.35 3.72Q1.21 3.64 0.77 3.64L0.77 3.64ZM2.60 7.59L2.60 7.59L2.63 11.35L2.63 11.35Q2.63 11.63 2.80 11.71L2.80 11.71L2.80 11.71Q2.97 11.80 3.54 11.80L3.54 11.80L3.54 11.80Q5.80 11.80 5.80 9.91L5.80 9.91L5.80 9.91Q5.80 9.22 5.48 8.73L5.48 8.73L5.48 8.73Q5.16 8.24 4.63 8.02L4.63 8.02L4.63 8.02Q4.05 7.75 3.61 7.68L3.61 7.68L3.61 7.68Q3.13 7.59 2.60 7.59ZM2.63 4.01L2.63 7.19L4.01 7.19L4.01 7.19Q4.66 7.19 5.08 6.66L5.08 6.66L5.08 6.66Q5.48 6.15 5.49 5.54L5.49 5.54L5.49 5.54Q5.49 4.85 4.90 4.27L4.90 4.27L4.90 4.27Q4.33 3.69 3.05 3.69L3.05 3.69L3.05 3.69Q2.63 3.69 2.63 4.01L2.63 4.01ZM15.76 3.64L15.17 3.64L15.18 3.08L18.70 3.08L18.70 3.64L18.46 3.64L18.46 3.64Q17.92 3.64 17.75 3.73L17.75 3.73L17.75 3.73Q17.61 3.81 17.61 4.28L17.61 4.28L17.61 11.22L17.61 11.22Q17.61 11.68 17.72 11.77L17.72 11.77L17.72 11.77Q17.83 11.87 18.36 11.87L18.36 11.87L18.91 11.87L18.92 12.41L15.34 12.41L15.33 11.87L15.69 11.87L15.69 11.87Q16.25 11.87 16.36 11.77L16.36 11.77L16.36 11.77Q16.47 11.67 16.47 11.25L16.47 11.25L16.47 4.14L16.47 4.14Q16.47 3.77 16.37 3.71L16.37 3.71L16.37 3.71Q16.26 3.64 15.76 3.64L15.76 3.64ZM27.04 7.83L27.04 7.83L27.04 7.83Q27.04 6.62 27.45 5.68L27.45 5.68L27.45 5.68Q27.86 4.72 28.55 4.12L28.55 4.12L28.55 4.12Q29.24 3.51 30.11 3.19L30.11 3.19L30.11 3.19Q30.95 2.88 31.90 2.88L31.90 2.88L31.90 2.88Q33.15 2.88 34.21 3.40L34.21 3.40L34.21 3.40Q35.29 3.93 36.00 5.07L36.00 5.07L36.00 5.07Q36.70 6.17 36.70 7.75L36.70 7.75L36.70 7.75Q36.70 8.70 36.39 9.54L36.39 9.54L36.39 9.54Q36.09 10.38 35.48 11.10L35.48 11.10L35.48 11.10Q34.88 11.81 33.94 12.22L33.94 12.22L33.94 12.22Q32.98 12.63 31.79 12.64L31.79 12.64L31.79 12.64Q30.65 12.64 29.72 12.23L29.72 12.23L29.72 12.23Q28.78 11.83 28.22 11.14L28.22 11.14L28.22 11.14Q27.64 10.45 27.35 9.60L27.35 9.60L27.35 9.60Q27.04 8.72 27.04 7.83ZM28.30 7.38L28.30 7.38L28.30 7.38Q28.30 8.52 28.73 9.60L28.73 9.60L28.73 9.60Q29.13 10.64 30.06 11.33L30.06 11.33L30.06 11.33Q30.97 12.03 32.16 12.04L32.16 12.04L32.16 12.04Q33.54 12.04 34.47 11.01L34.47 11.01L34.47 11.01Q35.42 9.97 35.42 8.10L35.42 8.10L35.42 8.10Q35.42 5.99 34.26 4.72L34.26 4.72L34.26 4.72Q33.11 3.46 31.60 3.45L31.60 3.45L31.60 3.45Q31.08 3.45 30.54 3.65L30.54 3.65L30.54 3.65Q30.00 3.85 29.49 4.25L29.49 4.25L29.49 4.25Q28.94 4.68 28.62 5.48L28.62 5.48L28.62 5.48Q28.30 6.27 28.30 7.38ZM45.40 3.64L44.82 3.64L44.83 3.08L48.34 3.08L48.34 3.64L48.11 3.64L48.11 3.64Q47.56 3.64 47.39 3.73L47.39 3.73L47.39 3.73Q47.26 3.81 47.26 4.28L47.26 4.28L47.26 11.22L47.26 11.22Q47.26 11.68 47.37 11.77L47.37 11.77L47.37 11.77Q47.48 11.87 48.01 11.87L48.01 11.87L48.56 11.87L48.57 12.41L44.99 12.41L44.97 11.87L45.34 11.87L45.34 11.87Q45.90 11.87 46.01 11.77L46.01 11.77L46.01 11.77Q46.12 11.67 46.12 11.25L46.12 11.25L46.12 4.14L46.12 4.14Q46.12 3.77 46.02 3.71L46.02 3.71L46.02 3.71Q45.91 3.64 45.40 3.64L45.40 3.64ZM56.32 3.64L56.31 3.08L58.48 3.08L64.22 10.48L64.22 4.14L64.22 4.14Q64.22 3.81 64.06 3.72L64.06 3.72L64.06 3.72Q63.91 3.64 63.45 3.64L63.45 3.64L62.96 3.64L62.99 3.08L65.97 3.08L65.97 3.64L65.65 3.64L65.65 3.64Q65.18 3.64 65.03 3.75L65.03 3.75L65.03 3.75Q64.88 3.86 64.88 4.25L64.88 4.25L64.88 12.32L64.88 12.47L64.88 12.47Q64.88 12.52 64.87 12.57L64.87 12.57L64.87 12.57Q64.85 12.61 64.82 12.64L64.82 12.64L64.82 12.64Q64.80 12.65 64.75 12.65L64.75 12.65L64.56 12.65L64.50 12.65L64.47 12.65L64.44 12.64L64.44 12.64Q64.42 12.64 64.40 12.63L64.40 12.63L64.40 12.63Q64.39 12.61 64.39 12.60L64.39 12.60L64.39 12.60Q64.39 12.58 64.37 12.57L64.37 12.57L64.37 12.57Q64.35 12.54 64.32 12.50L64.32 12.50L64.32 12.50Q64.31 12.48 64.29 12.45L64.29 12.45L64.29 12.45Q64.26 12.41 64.25 12.40L64.25 12.40L58.15 4.56L58.21 11.22L58.21 11.22Q58.21 11.67 58.38 11.77L58.38 11.77L58.38 11.77Q58.54 11.87 59.25 11.87L59.25 11.87L59.49 11.87L59.49 12.41L56.55 12.41L56.55 11.87L56.97 11.87L56.97 11.87Q57.35 11.87 57.46 11.76L57.46 11.76L57.46 11.76Q57.55 11.66 57.56 11.25L57.56 11.25L57.56 3.80L57.42 3.64L56.32 3.64ZM73.72 3.64L73.71 3.08L80.89 3.08L80.89 3.08Q80.90 4.14 80.96 5.28L80.96 5.28L80.41 5.30L80.41 5.30Q80.40 4.66 80.34 4.25L80.34 4.25L80.34 4.25Q80.30 3.89 80.25 3.80L80.25 3.80L80.25 3.80Q80.19 3.71 80.08 3.69L80.08 3.69L80.08 3.69Q79.98 3.68 79.39 3.68L79.39 3.68L77.01 3.68L77.01 3.68Q76.47 3.68 76.32 3.77L76.32 3.77L76.32 3.77Q76.20 3.86 76.20 4.33L76.20 4.33L76.20 6.28L76.20 6.28Q76.20 6.69 76.25 6.76L76.25 6.76L76.25 6.76Q76.32 6.84 76.66 6.84L76.66 6.84L78.78 6.84L78.78 6.84Q79.14 6.84 79.22 6.74L79.22 6.74L79.22 6.74Q79.30 6.64 79.30 6.17L79.30 6.17L79.30 5.63L79.82 5.63L79.82 8.97L79.30 8.97L79.30 8.26L79.30 8.26Q79.30 7.68 79.22 7.57L79.22 7.57L79.22 7.57Q79.14 7.46 78.80 7.46L78.80 7.46L76.71 7.46L76.71 7.46Q76.37 7.46 76.29 7.54L76.29 7.54L76.29 7.54Q76.20 7.63 76.20 7.89L76.20 7.89L76.20 11.20L76.20 11.20Q76.20 11.60 76.27 11.73L76.27 11.73L76.27 11.73Q76.35 11.87 76.62 11.87L76.62 11.87L77.55 11.87L77.55 12.41L73.96 12.41L73.96 11.87L74.37 11.87L74.37 11.87Q74.87 11.87 74.97 11.79L74.97 11.79L74.97 11.79Q75.07 11.70 75.07 11.33L75.07 11.33L75.07 4.24L75.07 4.24Q75.07 3.79 74.89 3.71L74.89 3.71L74.89 3.71Q74.76 3.64 73.72 3.64L73.72 3.64ZM89.39 7.83L89.39 7.83L89.39 7.83Q89.39 6.62 89.79 5.68L89.79 5.68L89.79 5.68Q90.21 4.72 90.90 4.12L90.90 4.12L90.90 4.12Q91.59 3.51 92.45 3.19L92.45 3.19L92.45 3.19Q93.29 2.88 94.24 2.88L94.24 2.88L94.24 2.88Q95.50 2.88 96.55 3.40L96.55 3.40L96.55 3.40Q97.63 3.93 98.34 5.07L98.34 5.07L98.34 5.07Q99.04 6.17 99.05 7.75L99.05 7.75L99.05 7.75Q99.05 8.70 98.74 9.54L98.74 9.54L98.74 9.54Q98.43 10.38 97.83 11.10L97.83 11.10L97.83 11.10Q97.22 11.81 96.28 12.22L96.28 12.22L96.28 12.22Q95.32 12.63 94.13 12.64L94.13 12.64L94.13 12.64Q93.00 12.64 92.06 12.23L92.06 12.23L92.06 12.23Q91.12 11.83 90.56 11.14L90.56 11.14L90.56 11.14Q89.99 10.45 89.69 9.60L89.69 9.60L89.69 9.60Q89.39 8.72 89.39 7.83ZM90.64 7.38L90.64 7.38L90.64 7.38Q90.64 8.52 91.08 9.60L91.08 9.60L91.08 9.60Q91.48 10.64 92.41 11.33L92.41 11.33L92.41 11.33Q93.32 12.03 94.51 12.04L94.51 12.04L94.51 12.04Q95.88 12.04 96.82 11.01L96.82 11.01L96.82 11.01Q97.77 9.97 97.77 8.10L97.77 8.10L97.77 8.10Q97.77 5.99 96.61 4.72L96.61 4.72L96.61 4.72Q95.46 3.46 93.95 3.45L93.95 3.45L93.95 3.45Q93.43 3.45 92.88 3.65L92.88 3.65L92.88 3.65Q92.34 3.85 91.83 4.25L91.83 4.25L91.83 4.25Q91.29 4.68 90.97 5.48L90.97 5.48L90.97 5.48Q90.64 6.27 90.64 7.38ZM107.50 3.64L107.11 3.64L107.12 3.08L110.34 3.08L110.34 3.08Q111.47 3.08 112.08 3.21L112.08 3.21L112.08 3.21Q112.72 3.37 113.18 3.75L113.18 3.75L113.18 3.75Q114.19 4.57 114.19 5.71L114.19 5.71L114.19 5.71Q114.19 6.43 113.72 7.04L113.72 7.04L113.72 7.04Q113.22 7.66 112.19 7.92L112.19 7.92L114.88 11.49L114.88 11.49Q115.19 11.87 115.48 11.87L115.48 11.87L116.08 11.87L116.11 12.41L114.08 12.41L111.08 8.10L110.91 8.10L110.91 8.10Q110.87 8.10 110.82 8.11L110.82 8.11L110.82 8.11Q110.76 8.11 110.75 8.11L110.75 8.11L110.75 8.11Q109.87 8.11 109.47 8.03L109.47 8.03L109.47 11.46L109.47 11.46Q109.47 11.76 109.61 11.81L109.61 11.81L109.61 11.81Q109.74 11.87 110.44 11.87L110.44 11.87L111.15 11.87L111.13 12.41L107.40 12.41L107.40 11.87L107.72 11.87L107.72 11.87Q108.19 11.87 108.25 11.81L108.25 11.81L108.25 11.81Q108.34 11.74 108.34 11.46L108.34 11.46L108.34 4.14L108.34 4.14Q108.34 3.82 108.14 3.73L108.14 3.73L108.14 3.73Q107.92 3.64 107.50 3.64L107.50 3.64ZM109.47 4.28L109.47 7.57L109.47 7.57Q109.66 7.70 110.37 7.71L110.37 7.71L110.37 7.71Q111.64 7.71 112.22 7.27L112.22 7.27L112.22 7.27Q112.81 6.84 112.81 5.92L112.81 5.92L112.81 5.92Q112.81 4.92 112.03 4.27L112.03 4.27L112.03 4.27Q111.28 3.64 109.89 3.64L109.89 3.64L109.89 3.64Q109.64 3.64 109.56 3.75L109.56 3.75L109.56 3.75Q109.48 3.84 109.47 4.28L109.47 4.28ZM127.03 12.41L124.00 12.41L124.00 11.87L124.14 11.87L124.14 11.87Q124.73 11.87 124.84 11.77L124.84 11.77L124.84 11.77Q124.97 11.68 124.98 11.21L124.98 11.21L125.11 4.38L125.11 4.38Q125.11 4.35 125.12 4.28L125.12 4.28L125.12 4.28Q125.13 4.21 125.13 4.17L125.13 4.17L125.13 4.01L125.13 4.01Q125.13 3.76 125.05 3.71L125.05 3.71L125.05 3.71Q124.95 3.64 124.73 3.64L124.73 3.64L124.02 3.64L124.00 3.08L126.12 3.08L129.31 10.55L132.45 3.08L134.68 3.08L134.68 3.64L134.21 3.64L134.21 3.64Q133.76 3.64 133.64 3.71L133.64 3.71L133.64 3.71Q133.48 3.79 133.48 4.08L133.48 4.08L133.48 11.22L133.48 11.22Q133.48 11.68 133.59 11.77L133.59 11.77L133.59 11.77Q133.70 11.87 134.33 11.87L134.33 11.87L134.61 11.87L134.63 12.41L131.23 12.41L131.21 11.87L131.49 11.87L131.49 11.87Q132.10 11.87 132.22 11.77L132.22 11.77L132.22 11.77Q132.34 11.66 132.34 11.25L132.34 11.25L132.34 4.83L130.19 9.91L129.34 12.02L129.34 12.02Q129.20 12.37 129.15 12.44L129.15 12.44L129.15 12.44Q129.11 12.51 129.04 12.51L129.04 12.51L129.04 12.51Q128.95 12.51 128.50 11.52L128.50 11.52L125.69 5.01L125.62 11.39L125.62 11.39Q125.62 11.74 125.82 11.80L125.82 11.80L125.82 11.80Q126.06 11.87 127.03 11.87L127.03 11.87L127.03 12.41ZM142.37 12.41L142.35 11.87L142.52 11.87L142.52 11.87Q142.91 11.87 143.04 11.73L143.04 11.73L143.04 11.73Q143.17 11.57 143.50 10.83L143.50 10.83L144.41 8.82L144.98 7.53L144.98 7.53Q145.25 6.97 145.29 6.86L145.29 6.86L145.29 6.86Q145.36 6.70 145.41 6.60L145.41 6.60L145.41 6.60Q145.46 6.51 145.48 6.45L145.48 6.45L145.57 6.21L147 2.74L147.29 2.74L147.29 2.74Q148.15 4.98 150.34 10.25L150.34 10.25L150.34 10.25Q150.79 11.34 150.98 11.64L150.98 11.64L150.98 11.64Q151.12 11.87 151.55 11.87L151.55 11.87L151.76 11.87L151.75 12.41L148.56 12.41L148.57 11.87L148.99 11.87L148.99 11.87Q149.60 11.87 149.60 11.70L149.60 11.70L149.60 11.70Q149.60 11.63 149.47 11.27L149.47 11.27L148.43 8.72L145.18 8.72L144.07 11.18L144.07 11.18Q143.94 11.50 143.94 11.63L143.94 11.63L143.94 11.63Q143.94 11.79 144.03 11.83L144.03 11.83L144.03 11.83Q144.13 11.87 144.51 11.87L144.51 11.87L145.09 11.87L145.09 12.41L142.37 12.41ZM146.86 4.79L145.45 8.10L148.19 8.10L146.86 4.79ZM159.78 5.35L159.28 5.33L159.28 5.33Q159.40 4.17 159.48 3.08L159.48 3.08L167.56 3.08L167.56 3.08Q167.48 4.13 167.45 4.53L167.45 4.53L167.45 4.53Q167.41 5.26 167.39 5.32L167.39 5.32L166.89 5.30L166.89 5.30Q166.97 4.34 166.97 4.16L166.97 4.16L166.97 4.16Q166.97 3.88 166.83 3.79L166.83 3.79L166.83 3.79Q166.66 3.69 166.26 3.69L166.26 3.69L164.65 3.69L164.65 3.69Q164.14 3.69 164.02 3.79L164.02 3.79L164.02 3.79Q163.93 3.87 163.92 4.36L163.92 4.36L163.92 11.22L163.92 11.22Q163.92 11.66 164.06 11.76L164.06 11.76L164.06 11.76Q164.22 11.87 164.73 11.87L164.73 11.87L165.29 11.87L165.31 12.41L161.62 12.40L161.62 11.87L161.83 11.87L161.83 11.87Q162.50 11.87 162.65 11.79L162.65 11.79L162.65 11.79Q162.79 11.70 162.79 11.28L162.79 11.28L162.79 4.48L162.79 4.48Q162.79 3.92 162.69 3.80L162.69 3.80L162.69 3.80Q162.59 3.69 162.17 3.69L162.17 3.69L160.70 3.69L160.70 3.69Q160.51 3.69 160.45 3.71L160.45 3.71L160.45 3.71Q160.38 3.72 160.27 3.72L160.27 3.72L160.27 3.72Q160.24 3.72 160.13 3.79L160.13 3.79L160.13 3.79Q160.04 3.84 160.02 3.86L160.02 3.86L160.02 3.86Q159.99 3.88 159.95 3.99L159.95 3.99L159.95 3.99Q159.92 4.05 159.89 4.14L159.89 4.14L159.89 4.14Q159.87 4.21 159.84 4.36L159.84 4.36L159.84 4.36Q159.82 4.59 159.82 4.61L159.82 4.61L159.82 4.61Q159.82 4.80 159.80 4.95L159.80 4.95L159.80 4.95Q159.80 5.02 159.80 5.15L159.80 5.15L159.80 5.15Q159.79 5.29 159.78 5.35L159.78 5.35ZM175.89 3.64L175.30 3.64L175.31 3.08L178.83 3.08L178.83 3.64L178.60 3.64L178.60 3.64Q178.05 3.64 177.88 3.73L177.88 3.73L177.88 3.73Q177.74 3.81 177.74 4.28L177.74 4.28L177.74 11.22L177.74 11.22Q177.74 11.68 177.85 11.77L177.85 11.77L177.85 11.77Q177.96 11.87 178.49 11.87L178.49 11.87L179.04 11.87L179.05 12.41L175.47 12.41L175.46 11.87L175.82 11.87L175.82 11.87Q176.38 11.87 176.49 11.77L176.49 11.77L176.49 11.77Q176.61 11.67 176.61 11.25L176.61 11.25L176.61 4.14L176.61 4.14Q176.61 3.77 176.50 3.71L176.50 3.71L176.50 3.71Q176.39 3.64 175.89 3.64L175.89 3.64ZM187.17 8.02L187.17 8.02L187.17 8.02Q187.17 6.86 187.65 5.83L187.65 5.83L187.65 5.83Q188.11 4.85 188.86 4.27L188.86 4.27L188.86 4.27Q189.61 3.69 190.50 3.37L190.50 3.37L190.50 3.37Q191.40 3.05 192.24 3.05L192.24 3.05L192.24 3.05Q193.11 3.05 193.78 3.16L193.78 3.16L193.78 3.16Q194.41 3.26 194.70 3.37L194.70 3.37L194.70 3.37Q195.01 3.48 195.04 3.48L195.04 3.48L195.04 3.48Q195.21 3.48 195.23 3.41L195.23 3.41L195.23 3.41Q195.26 3.33 195.26 3.09L195.26 3.09L195.26 2.97L195.79 2.97L195.79 2.97Q195.84 4.30 195.97 5.64L195.97 5.64L195.46 5.65L195.46 5.65Q195.43 5.40 195.42 5.26L195.42 5.26L195.42 5.26Q195.42 5.20 195.41 5.13L195.41 5.13L195.41 5.13Q195.41 5.07 195.40 5.02L195.40 5.02L195.40 5.02Q195.39 4.98 195.39 4.95L195.39 4.95L195.39 4.95Q195.36 4.84 195.36 4.74L195.36 4.74L195.36 4.74Q195.36 4.68 195.32 4.59L195.32 4.59L195.32 4.59Q195.32 4.57 195.29 4.55L195.29 4.55L195.29 4.55Q195.26 4.52 195.26 4.50L195.26 4.50L195.26 4.50Q195.23 4.44 195.17 4.41L195.17 4.41L195.17 4.41Q195.13 4.38 195.10 4.37L195.10 4.37L195.10 4.37Q195.07 4.36 195.04 4.35L195.04 4.35L195.04 4.35Q195.03 4.35 195.01 4.33L195.01 4.33L195.01 4.33Q194.98 4.31 194.94 4.29L194.94 4.29L194.94 4.29Q194.90 4.27 194.86 4.25L194.86 4.25L194.86 4.25Q194.63 4.16 194.61 4.14L194.61 4.14L194.61 4.14Q194.26 3.96 193.61 3.83L193.61 3.83L193.61 3.83Q192.94 3.71 192.28 3.71L192.28 3.71L192.28 3.71Q190.56 3.71 189.46 4.84L189.46 4.84L189.46 4.84Q188.36 5.99 188.36 7.62L188.36 7.62L188.36 7.62Q188.36 9.35 189.58 10.69L189.58 10.69L189.58 10.69Q190.78 12.02 192.60 12.02L192.60 12.02L192.60 12.02Q193.61 12.02 194.55 11.49L194.55 11.49L194.55 11.49Q195.50 10.94 195.53 10.58L195.53 10.58L195.57 9.41L196.06 9.41L195.98 11.45L195.98 11.45Q195.91 11.49 195.78 11.57L195.78 11.57L195.78 11.57Q195.73 11.60 195.26 11.85L195.26 11.85L195.26 11.85Q194.89 12.05 194.44 12.23L194.44 12.23L194.44 12.23Q194.08 12.39 193.43 12.51L193.43 12.51L193.43 12.51Q192.82 12.63 192.25 12.64L192.25 12.64L192.25 12.64Q189.88 12.64 188.51 11.39L188.51 11.39L188.51 11.39Q187.17 10.14 187.17 8.02ZM204.68 3.64L204.09 3.64L204.11 3.08L207.62 3.08L207.62 3.64L207.39 3.64L207.39 3.64Q206.84 3.64 206.67 3.73L206.67 3.73L206.67 3.73Q206.53 3.81 206.53 4.28L206.53 4.28L206.53 11.22L206.53 11.22Q206.53 11.68 206.64 11.77L206.64 11.77L206.64 11.77Q206.75 11.87 207.29 11.87L207.29 11.87L207.83 11.87L207.85 12.41L204.26 12.41L204.25 11.87L204.61 11.87L204.61 11.87Q205.17 11.87 205.29 11.77L205.29 11.77L205.29 11.77Q205.40 11.67 205.40 11.25L205.40 11.25L205.40 4.14L205.40 4.14Q205.40 3.77 205.30 3.71L205.30 3.71L205.30 3.71Q205.19 3.64 204.68 3.64L204.68 3.64ZM215.60 12.41L215.58 11.87L215.76 11.87L215.76 11.87Q216.15 11.87 216.28 11.73L216.28 11.73L216.28 11.73Q216.40 11.57 216.73 10.83L216.73 10.83L217.64 8.82L218.22 7.53L218.22 7.53Q218.48 6.97 218.52 6.86L218.52 6.86L218.52 6.86Q218.59 6.70 218.64 6.60L218.64 6.60L218.64 6.60Q218.70 6.51 218.71 6.45L218.71 6.45L218.80 6.21L220.23 2.74L220.53 2.74L220.53 2.74Q221.38 4.98 223.57 10.25L223.57 10.25L223.57 10.25Q224.02 11.34 224.21 11.64L224.21 11.64L224.21 11.64Q224.35 11.87 224.79 11.87L224.79 11.87L225.00 11.87L224.98 12.41L221.79 12.41L221.81 11.87L222.22 11.87L222.22 11.87Q222.84 11.87 222.84 11.70L222.84 11.70L222.84 11.70Q222.84 11.63 222.70 11.27L222.70 11.27L221.66 8.72L218.42 8.72L217.31 11.18L217.31 11.18Q217.17 11.50 217.17 11.63L217.17 11.63L217.17 11.63Q217.17 11.79 217.27 11.83L217.27 11.83L217.27 11.83Q217.36 11.87 217.75 11.87L217.75 11.87L218.32 11.87L218.32 12.41L215.60 12.41ZM220.10 4.79L218.68 8.10L221.42 8.10L220.10 4.79ZM232.74 3.64L232.73 3.08L234.90 3.08L240.64 10.48L240.64 4.14L240.64 4.14Q240.64 3.81 240.48 3.72L240.48 3.72L240.48 3.72Q240.33 3.64 239.87 3.64L239.87 3.64L239.38 3.64L239.41 3.08L242.39 3.08L242.39 3.64L242.07 3.64L242.07 3.64Q241.60 3.64 241.45 3.75L241.45 3.75L241.45 3.75Q241.30 3.86 241.30 4.25L241.30 4.25L241.30 12.32L241.30 12.47L241.30 12.47Q241.30 12.52 241.29 12.57L241.29 12.57L241.29 12.57Q241.27 12.61 241.24 12.64L241.24 12.64L241.24 12.64Q241.23 12.65 241.17 12.65L241.17 12.65L240.98 12.65L240.92 12.65L240.89 12.65L240.86 12.64L240.86 12.64Q240.84 12.64 240.82 12.63L240.82 12.63L240.82 12.63Q240.81 12.61 240.81 12.60L240.81 12.60L240.81 12.60Q240.81 12.58 240.80 12.57L240.80 12.57L240.80 12.57Q240.77 12.54 240.74 12.50L240.74 12.50L240.74 12.50Q240.73 12.48 240.71 12.45L240.71 12.45L240.71 12.45Q240.69 12.41 240.67 12.40L240.67 12.40L234.57 4.56L234.64 11.22L234.64 11.22Q234.64 11.67 234.80 11.77L234.80 11.77L234.80 11.77Q234.96 11.87 235.67 11.87L235.67 11.87L235.91 11.87L235.91 12.41L232.97 12.41L232.97 11.87L233.39 11.87L233.39 11.87Q233.77 11.87 233.88 11.76L233.88 11.76L233.88 11.76Q233.97 11.66 233.98 11.25L233.98 11.25L233.98 3.80L233.84 3.64L232.74 3.64Z"></path></g></svg>