<svg data-v-423bf9ae="" xmlns="http://www.w3.org/2000/svg" viewBox="0 0 105.40540540540542 60" class="icon"><!----><!----><!----><!----><g data-v-423bf9ae="" id="5a9f12b8-4b93-44e1-b050-3b66f30ecf1b" transform="matrix(0.40540540540540543,0,0,0.40540540540540543,-8.108105427510033,-30.810810810810814)" stroke="none" fill="black"><path d="M230.9 196c2.8 0 5.1-2.3 5.1-5.1V93.8c0-2.8-2.3-4.8-5.1-4.8H69.1c-2.8 0-5.1 2-5.1 4.8V191c0 2.8 2.3 5.1 5.1 5.1h161.8zM74 118.8L94.1 99h5.9l-26 25.6v-5.8zm0 20L114.1 99h5.9l-46 45.6v-5.8zm0 20L134.1 99h5.9l-66 65.6v-5.8zM159.9 99L74 184.6v-5.9L154.1 99h5.8zm20 0l-87.1 87h-5.9L174 99h5.9zm20 0l-87.1 87h-5.9L194 99h5.9zm20 0l-87.1 87h-5.9L214 99h5.9zm-13 87l19.1-19.1v5.9L212.8 186h-5.9zm-20 0l39.1-39.1v5.9L192.8 186h-5.9zm-20 0l59.1-59.1v5.9L172.8 186h-5.9zm59.1-73.2L152.8 186h-5.9l79.1-79.1v5.9zM79.9 99l-5.9 5.6V99h5.9zM275 199h-26V81.3c0-2.8-2.1-5.3-4.9-5.3H55.9c-2.8 0-4.9 2.6-4.9 5.3V199H25c-2.8 0-5 2.2-5 5v15c0 2.8 2.2 5 5 5h250c2.8 0 5-2.2 5-5v-15c0-2.8-2.2-5-5-5zM61 86h178v112H61V86zm209 128H30v-5h95.7l6.8 2.7c.6.2 1.2.3 1.8.3h30c.6 0 1.1-.1 1.7-.3l6.8-2.4.6-.3H270v5z"></path></g><!----></svg>